<?xml version="1.0" encoding="UTF-8"?>
<!-- Created with Inkscape (http://www.inkscape.org/) -->
<svg width="290.64mm" height="130.34mm" version="1.1" viewBox="0 0 290.64 130.34" xmlns="http://www.w3.org/2000/svg" xmlns:cc="http://creativecommons.org/ns#" xmlns:dc="http://purl.org/dc/elements/1.1/" xmlns:rdf="http://www.w3.org/1999/02/22-rdf-syntax-ns#">
 <defs>
  <marker id="marker18050" overflow="visible" orient="auto">
   <path transform="matrix(-.4 0 0 -.4 -4 0)" d="m0 0 5-5-17.5 5 17.5 5z" fill-rule="evenodd" stroke="#000" stroke-width="1pt"/>
  </marker>
  <marker id="marker17870" overflow="visible" orient="auto">
   <path transform="matrix(-.8 0 0 -.8 -10 0)" d="m0 0 5-5-17.5 5 17.5 5z" fill-rule="evenodd" stroke="#000" stroke-width="1pt"/>
  </marker>
  <marker id="marker17780" overflow="visible" orient="auto">
   <path transform="matrix(.8 0 0 .8 10 0)" d="m0 0 5-5-17.5 5 17.5 5z" fill-rule="evenodd" stroke="#000" stroke-width="1pt"/>
  </marker>
  <marker id="marker17690" overflow="visible" orient="auto">
   <path transform="matrix(-.8 0 0 -.8 -10 0)" d="m0 0 5-5-17.5 5 17.5 5z" fill-rule="evenodd" stroke="#000" stroke-width="1pt"/>
  </marker>
  <marker id="marker17604" overflow="visible" orient="auto">
   <path transform="matrix(.8 0 0 .8 10 0)" d="m0 0 5-5-17.5 5 17.5 5z" fill-rule="evenodd" stroke="#000" stroke-width="1pt"/>
  </marker>
  <marker id="marker16448" overflow="visible" orient="auto">
   <path transform="matrix(-.8 0 0 -.8 -10 0)" d="m0 0 5-5-17.5 5 17.5 5z" fill-rule="evenodd" stroke="#000" stroke-width="1pt"/>
  </marker>
  <marker id="Arrow1Lstart" overflow="visible" orient="auto">
   <path transform="matrix(.8 0 0 .8 10 0)" d="m0 0 5-5-17.5 5 17.5 5z" fill-rule="evenodd" stroke="#000" stroke-width="1pt"/>
  </marker>
  <marker id="marker16288" overflow="visible" orient="auto">
   <path transform="matrix(-.8 0 0 -.8 -10 0)" d="m0 0 5-5-17.5 5 17.5 5z" fill-rule="evenodd" stroke="#000" stroke-width="1pt"/>
  </marker>
  <marker id="marker15917" overflow="visible" orient="auto">
   <path transform="matrix(-.8 0 0 -.8 -10 0)" d="m0 0 5-5-17.5 5 17.5 5z" fill-rule="evenodd" stroke="#000" stroke-width="1pt"/>
  </marker>
  <marker id="marker14445" overflow="visible" orient="auto">
   <path transform="matrix(-.4 0 0 -.4 -4 0)" d="m0 0 5-5-17.5 5 17.5 5z" fill-rule="evenodd" stroke="#000" stroke-width="1pt"/>
  </marker>
 </defs>
 <metadata>
  <rdf:RDF>
   <cc:Work rdf:about="">
    <dc:format>image/svg+xml</dc:format>
    <dc:type rdf:resource="http://purl.org/dc/dcmitype/StillImage"/>
    <dc:title/>
   </cc:Work>
  </rdf:RDF>
 </metadata>
 <g transform="translate(24.306 -344.28)">
  <g stroke="#000">
   <path d="m-8.769 445.9h273.74" fill="none" marker-end="url(#marker15917)" stroke-width=".702"/>
   <path d="m8.0509 357.1v97.864" fill="none" stroke-dasharray="0.702, 2.106" stroke-width=".702"/>
   <g transform="matrix(.3 0 0 -.3 -161.81 584.23)" fill-rule="evenodd" stroke-miterlimit="10.433" stroke-width="0" xml:space="preserve"><path d="m494.24 430.21-0.01 0.59-0.02 0.58-0.05 0.57-0.05 0.56-0.08 0.55-0.09 0.53-0.11 0.52-0.12 0.51-0.15 0.5-0.16 0.48-0.17 0.46-0.2 0.45-0.21 0.43-0.23 0.42-0.25 0.4-0.26 0.38-0.28 0.37-0.3 0.34-0.32 0.32-0.34 0.31-0.35 0.28-0.38 0.26-0.39 0.24-0.41 0.22-0.42 0.19-0.45 0.17-0.47 0.15-0.48 0.12-0.5 0.09-0.53 0.07-0.54 0.04-0.56 0.01c-5.18 0-9.56-4.18-9.92-4.48-3.98-3.94-5.47-8.42-5.47-8.52 0-0.29 0.25-0.36 0.5-0.36 0.94 0 1.74 0.5 2.49 1.05 0.89 0.66 0.95 0.8 1.5 1.95 0.43 0.99 1.59 3.44 3.43 5.54 1.19 1.34 2.19 2.09 4.19 2.09 4.83 0 7.91-4 7.91-10.52 0-10.17-7.22-20.23-16.44-20.23-7.08 0-10.95 5.64-10.95 12.75 0 6.78 3.48 14.25 10.76 18.55 0.49 0.29 1.99 1.18 1.99 1.84 0 0.34-0.39 0.34-0.5 0.34-1.74 0-16.49-7.92-16.49-22.87 0-6.97 3.64-13.34 11.91-13.34 9.72 0 23.97 9.76 23.97 25.1z"/><path d="m503.79 402.45-0.03-0.11-0.08-0.24-0.05-0.12-0.06-0.12-0.05-0.13-0.07-0.13-0.06-0.12-0.08-0.13-0.07-0.13-0.08-0.13-0.09-0.12-0.08-0.13-0.4-0.48-0.11-0.11-0.12-0.1-0.11-0.1-0.13-0.1-0.12-0.09-0.13-0.08-0.14-0.08-0.13-0.07-0.15-0.06-0.14-0.05-0.15-0.05-0.15-0.04-0.32-0.04h-0.16c-0.11 0-1.16 0-1.89 0.48 1.43 0.45 1.53 1.72 1.53 1.92 0 0.77-0.6 1.3-1.39 1.3-0.97 0-1.99-0.84-1.99-2.14 0-1.74 1.96-2.53 3.66-2.53 1.61 0 3.03 1 3.91 2.47 0.82-1.85 2.75-2.47 4.14-2.47 4.01 0 6.14 4.34 6.14 5.33 0 0.45-0.46 0.45-0.57 0.45-0.48 0-0.51-0.17-0.65-0.59-0.74-2.41-2.83-4.22-4.78-4.22-1.39 0-2.13 0.93-2.13 2.26 0 0.91 0.85 4.08 1.81 7.96 0.71 2.67 2.27 3.54 3.43 3.54 0.06 0 1.14 0 1.87-0.48-1.11-0.31-1.53-1.3-1.53-1.92 0-0.77 0.59-1.29 1.39-1.29 0.81 0 1.95 0.66 1.95 2.13 0 1.95-2.23 2.53-3.62 2.53-1.74 0-3.14-1.14-3.91-2.47-0.62 1.44-2.22 2.47-4.17 2.47-3.91 0-6.14-4.28-6.14-5.33 0-0.45 0.5-0.45 0.59-0.45 0.46 0 0.49 0.14 0.68 0.59 0.85 2.72 3.06 4.22 4.76 4.22 1.16 0 2.09-0.62 2.09-2.29 0-0.71-0.42-2.44-0.73-3.63z"/></g>
   <path d="m7.7508 445.6 0.26727-45.436" fill="none" marker-end="url(#marker16288)" stroke-width=".26458px"/>
   <path d="m98.009 357.1v97.864" fill="none" stroke-dasharray="8.42400056, 0.70200005" stroke-width=".702"/>
   <path d="m113.88 357.1v97.864" fill="none" stroke-dasharray="8.42400056, 0.70200005" stroke-width=".702"/>
   <path d="m98.009 454.96h15.875" fill="none" marker-end="url(#marker16448)" marker-start="url(#Arrow1Lstart)" stroke-width=".26458px"/>
  </g>
  <g transform="translate(18.233 370.65)">
   <g transform="matrix(.3 0 0 -.3 -52.5 222.75)" fill="none" fill-rule="evenodd" stroke="#000" stroke-miterlimit="10.433" xml:space="preserve"><path d="m464.83 417.71 0.14 0.01h0.5l0.19 0.01h0.2l0.21 0.01 0.44 0.02 0.23 0.01 0.24 0.01 0.75 0.06 0.53 0.05 0.53 0.07 0.55 0.07 0.54 0.1 0.54 0.11 0.54 0.12 0.26 0.07 0.26 0.08 0.5 0.16 0.24 0.09 0.24 0.1c3.48 1.5 3.73 4.43 3.73 5.12 0 2.2-1.89 4.23-5.33 4.23v-1.09c2.35 0 3.69-1.44 3.69-3.14 0-5.17-7.97-5.17-10.01-5.17h-2.05c1.95 7.56 7.08 8.31 8.37 8.31v1.09c-5.53 0-13.04-4.82-13.04-13.54 0-5.08 2.93-9.02 7.81-9.02 7.12 0 11.31 5.28 11.31 5.88 0 0.29-0.3 0.65-0.59 0.65-0.25 0-0.35-0.11-0.66-0.5-3.94-4.93-9.36-4.93-9.95-4.93-3.89 0-4.35 4.18-4.35 5.78 0 0.59 0.05 2.14 0.8 5.18z" fill="#000" stroke-width="0"/></g>
  </g>
  <g transform="translate(-36.158 371.5)">
   <g transform="matrix(.3 0 0 -.3 -52.5 222.75)" fill-rule="evenodd" stroke="#000" stroke-miterlimit="10.433" stroke-width="0" xml:space="preserve"><path d="m468.38 440.23v0.05l-0.01 0.02v0.04l-0.01 0.02v0.02l-0.02 0.04v0.03l-0.02 0.02-0.01 0.03-0.01 0.02-0.02 0.03-0.04 0.04-0.02 0.03-0.01 0.01-0.02 0.01-0.02 0.02-0.02 0.01-0.01 0.01-0.06 0.03-0.01 0.01h-0.02l-0.04 0.02h-0.03l-0.04 0.02h-0.05l-0.02 0.01h-0.06l-0.03 0.01h-0.06c-1.14 0-4.78-0.41-6.08-0.5-0.39-0.05-0.93-0.1-0.93-1.05 0-0.55 0.48-0.55 1.23-0.55 2.39 0 2.45-0.45 2.45-0.84l-0.15-1-6.28-24.91c-0.14-0.54-0.25-0.9-0.25-1.7 0-2.83 2.2-4.58 4.53-4.58 1.65 0 2.89 1 3.75 2.78 0.89 1.91 1.48 4.8 1.48 4.89 0 0.5-0.43 0.5-0.59 0.5-0.5 0-0.55-0.2-0.7-0.9-0.85-3.24-1.79-6.17-3.79-6.17-1.5 0-1.5 1.59-1.5 2.29 0 1.19 0.07 1.44 0.3 2.39z"/><path d="m482.07 420.92v0.31l-0.01 0.04v0.12l-0.01 0.03v0.03l-0.01 0.02v0.05l-0.01 0.03v0.02l-0.02 0.04-0.01 0.04-0.08 0.12-0.06 0.04-0.04 0.02-0.03 0.01-0.04 0.01-0.05 0.02h-0.05l-0.02 0.01h-0.03l-0.03 0.01h-0.12l-0.03 0.01h-0.4c-2.23-2.2-5.39-2.23-6.82-2.23v-1.25c0.84 0 3.14 0 5.04 0.97v-17.77c0-1.16 0-1.61-3.48-1.61h-1.31v-1.25c0.62 0.03 4.9 0.14 6.2 0.14 1.08 0 5.47-0.11 6.23-0.14v1.25h-1.33c-3.48 0-3.48 0.45-3.48 1.61z"/></g>
  </g>
  <g transform="translate(80.092 371.5)">
   <g transform="matrix(.3 0 0 -.3 -52.5 222.75)" fill-rule="evenodd" stroke="#000" stroke-miterlimit="10.433" stroke-width="0" xml:space="preserve"><path d="m468.38 440.23v0.05l-0.01 0.02v0.04l-0.01 0.02v0.02l-0.02 0.04v0.03l-0.02 0.02-0.01 0.03-0.01 0.02-0.02 0.03-0.04 0.04-0.02 0.03-0.01 0.01-0.02 0.01-0.02 0.02-0.02 0.01-0.01 0.01-0.06 0.03-0.01 0.01h-0.02l-0.04 0.02h-0.03l-0.04 0.02h-0.05l-0.02 0.01h-0.06l-0.03 0.01h-0.06c-1.14 0-4.78-0.41-6.08-0.5-0.39-0.05-0.93-0.1-0.93-1.05 0-0.55 0.48-0.55 1.23-0.55 2.39 0 2.45-0.45 2.45-0.84l-0.15-1-6.28-24.91c-0.14-0.54-0.25-0.9-0.25-1.7 0-2.83 2.2-4.58 4.53-4.58 1.65 0 2.89 1 3.75 2.78 0.89 1.91 1.48 4.8 1.48 4.89 0 0.5-0.43 0.5-0.59 0.5-0.5 0-0.55-0.2-0.7-0.9-0.85-3.24-1.79-6.17-3.79-6.17-1.5 0-1.5 1.59-1.5 2.29 0 1.19 0.07 1.44 0.3 2.39z"/><path d="m487.99 405.11h-1.19c-0.09-0.77-0.45-2.83-0.9-3.18-0.27-0.2-2.95-0.2-3.44-0.2h-6.42c3.66 3.23 4.87 4.2 6.97 5.84 2.58 2.07 4.98 4.22 4.98 7.54 0 4.21-3.69 6.79-8.15 6.79-4.32 0-7.25-3.03-7.25-6.23 0-1.78 1.5-1.96 1.86-1.96 0.82 0 1.84 0.6 1.84 1.85 0 0.62-0.25 1.84-2.06 1.84 1.07 2.47 3.45 3.24 5.09 3.24 3.48 0 5.3-2.71 5.3-5.53 0-3.04-2.16-5.44-3.28-6.69l-8.39-8.3c-0.36-0.31-0.36-0.39-0.36-1.36h14.36z"/></g>
  </g>
  <g fill="none" stroke="#000">
   <path d="m225.01 357.1v97.864" stroke-dasharray="0.702, 2.106" stroke-width=".702"/>
   <path d="m8.0509 454.96h89.958" marker-end="url(#marker17690)" marker-start="url(#marker17604)" stroke-width=".26458px"/>
   <path d="m113.88 454.96h111.13" marker-end="url(#marker17870)" marker-start="url(#marker17780)" stroke-width=".26458px"/>
  </g>
  <g fill="#000000" font-family="sans-serif" font-size="10.583px" letter-spacing="0px" stroke-width=".26458" word-spacing="0px">
   <text x="43.043621" y="352.17493" style="line-height:1.25" xml:space="preserve"><tspan x="43.043621" y="352.17493" stroke-width=".26458">Eau</tspan></text>
   <text x="162.14493" y="352.3248" style="line-height:1.25" xml:space="preserve"><tspan x="162.14493" y="352.3248" stroke-width=".26458">Air</tspan></text>
   <text x="92.317108" y="352.17493" style="line-height:1.25" xml:space="preserve"><tspan x="92.317108" y="352.17493" stroke-width=".26458">Verre</tspan></text>
  </g>
  <path d="m8.0181 400.17h38.754 38.754" fill="none" marker-mid="url(#marker14445)" stroke="#000" stroke-width=".26458px"/>
  <path d="m8.0181 400.17 41.427-13.631 41.427-13.631" fill="none" marker-mid="url(#marker18050)" stroke="#000" stroke-width=".26458px"/>
  <g transform="translate(-27.152 312.36)">
   <g transform="matrix(.3 0 0 -.3 -52.5 222.75)" fill-rule="evenodd" stroke="#000" stroke-miterlimit="10.433" stroke-width="0" xml:space="preserve"><path d="m481.33 424.78h0.38l0.09 0.01h0.09l0.09 0.01 0.1 0.01 0.2 0.04 0.11 0.02 0.1 0.02 0.2 0.06 0.2 0.08 0.1 0.05 0.09 0.05 0.09 0.06 0.16 0.14 0.08 0.08 0.03 0.04 0.04 0.05 0.03 0.04 0.12 0.2 0.1 0.3 0.03 0.21v0.08l0.01 0.07v0.08c0 1.19-1.05 1.19-1.94 1.19h-11.36c-7.53 0-13.06-8.22-13.06-14.14 0-4.39 2.94-7.88 7.47-7.88l0.06 1.1c-2.45 0-4.44 1.79-4.44 5.37 0 1.5 0.6 5.59 2.35 8.53 2.09 3.44 5.08 4.13 6.76 4.13 4.19 0 4.6-3.28 4.6-4.83 0-2.34-1-6.42-2.69-8.97-1.95-2.94-4.64-4.23-6.58-4.23l-0.06-1.1c5.89 0 12.51 6.03 12.51 13.71 0 0.84 0 3.23-1.54 5.42z"/><path d="m495.63 420.92v0.38l-0.01 0.03v0.06l-0.01 0.03v0.05l-0.01 0.03v0.02l-0.01 0.03v0.02l-0.01 0.04-0.02 0.04-0.08 0.12-0.09 0.06-0.08 0.02-0.05 0.02h-0.04l-0.03 0.01h-0.03l-0.02 0.01h-0.12l-0.04 0.01h-0.39c-2.24-2.2-5.39-2.23-6.83-2.23v-1.25c0.84 0 3.14 0 5.04 0.97v-17.77c0-1.16 0-1.61-3.48-1.61h-1.31v-1.25c0.62 0.03 4.9 0.14 6.2 0.14 1.08 0 5.47-0.11 6.24-0.14v1.25h-1.33c-3.49 0-3.49 0.45-3.49 1.61z"/></g>
  </g>
  <g transform="translate(-52.37 271.95)">
   <g transform="matrix(.3 0 0 -.3 -23.902 224.62)" fill-rule="evenodd" stroke="#000" stroke-miterlimit="10.433" stroke-width="0" xml:space="preserve"><path d="m481.33 424.78h0.38l0.09 0.01h0.09l0.09 0.01 0.1 0.01 0.2 0.04 0.11 0.02 0.1 0.02 0.2 0.06 0.2 0.08 0.1 0.05 0.09 0.05 0.09 0.06 0.16 0.14 0.08 0.08 0.03 0.04 0.04 0.05 0.03 0.04 0.12 0.2 0.1 0.3 0.03 0.21v0.08l0.01 0.07v0.08c0 1.19-1.05 1.19-1.94 1.19h-11.36c-7.53 0-13.06-8.22-13.06-14.14 0-4.39 2.94-7.88 7.47-7.88l0.06 1.1c-2.45 0-4.44 1.79-4.44 5.37 0 1.5 0.6 5.59 2.35 8.53 2.09 3.44 5.08 4.13 6.76 4.13 4.19 0 4.6-3.28 4.6-4.83 0-2.34-1-6.42-2.69-8.97-1.95-2.94-4.64-4.23-6.58-4.23l-0.06-1.1c5.89 0 12.51 6.03 12.51 13.71 0 0.84 0 3.23-1.54 5.42z"/><path d="m501.55 405.11h-1.18c-0.1-0.77-0.46-2.83-0.91-3.18-0.26-0.2-2.95-0.2-3.44-0.2h-6.42c3.66 3.23 4.88 4.2 6.97 5.84 2.58 2.07 4.98 4.22 4.98 7.54 0 4.21-3.68 6.79-8.15 6.79-4.31 0-7.25-3.03-7.25-6.23 0-1.78 1.5-1.96 1.86-1.96 0.83 0 1.84 0.6 1.84 1.85 0 0.62-0.25 1.84-2.06 1.84 1.08 2.47 3.45 3.24 5.09 3.24 3.49 0 5.3-2.71 5.3-5.53 0-3.04-2.16-5.44-3.28-6.69l-8.39-8.3c-0.36-0.31-0.36-0.39-0.36-1.36h14.36z"/></g>
  </g>
  <g transform="translate(-141.95 290.03)">
   <g transform="matrix(.3 0 0 -.3 50.933 269.25)" fill-rule="evenodd" stroke="#000" stroke-miterlimit="10.433" stroke-width="0" xml:space="preserve"><path d="m459.91 409.14-0.02-0.07-0.01-0.08-0.02-0.07-0.01-0.08-0.08-0.32-0.03-0.16-0.12-0.48-0.01-0.08-0.04-0.14-0.01-0.07-0.02-0.07-0.01-0.07-0.03-0.18-0.02-0.1-0.02-0.08v-0.09c0-0.89 0.7-1.35 1.43-1.35 0.61 0 1.5 0.39 1.85 1.39 0.06 0.11 0.65 2.44 0.95 3.69l1.1 4.48c0.29 1.1 0.59 2.19 0.84 3.35 0.2 0.84 0.61 2.28 0.66 2.48 0.75 1.55 3.39 6.08 8.1 6.08 2.25 0 2.71-1.84 2.71-3.48 0-3.1-2.46-9.47-3.25-11.61-0.44-1.14-0.49-1.75-0.49-2.3 0-2.33 1.74-4.08 4.08-4.08 4.69 0 6.53 7.27 6.53 7.67 0 0.5-0.45 0.5-0.61 0.5-0.48 0-0.48-0.15-0.73-0.9-1-3.38-2.64-6.17-5.09-6.17-0.85 0-1.19 0.5-1.19 1.64 0 1.25 0.45 2.45 0.89 3.54 0.95 2.64 3.05 8.11 3.05 10.96 0 3.34-2.15 5.32-5.74 5.32-4.48 0-6.92-3.18-7.76-4.32-0.25 2.79-2.3 4.32-4.6 4.32-2.28 0-3.23-1.93-3.73-2.82-0.8-1.71-1.5-4.64-1.5-4.85 0-0.5 0.5-0.5 0.61-0.5 0.5 0 0.54 0.07 0.84 1.16 0.84 3.53 1.84 5.92 3.64 5.92 0.99 0 1.55-0.64 1.55-2.28 0-1.05-0.16-1.61-0.8-4.19z"/><path d="m503.38 409.87v0.71l-0.02 0.68-0.03 0.66-0.04 0.64-0.06 0.62-0.08 0.6-0.09 0.57-0.1 0.56-0.13 0.55-0.15 0.53-0.17 0.51-0.19 0.5-0.21 0.49-0.24 0.48-0.26 0.47-0.14 0.23-0.15 0.23c-1.08 1.61-3.23 3-6.03 3v-0.98c1.89 0 3.7-1.14 4.33-3.17 0.56-1.88 0.59-4.39 0.59-7.43 0-2.57 0-5.15-0.45-7.34-0.71-3.17-3.06-3.94-4.47-3.94-1.59 0-3.72 0.94-4.42 3.8-0.49 2.05-0.49 4.91-0.49 7.48 0 2.55 0 5.21 0.52 7.11 0.73 2.75 2.97 3.49 4.39 3.49v0.98c-8.08 0-8.08-9.51-8.08-12.03 0-2.5 0-11.81 8.08-11.81 8.09 0 8.09 9.31 8.09 11.81z"/></g>
  </g>
  <g transform="translate(14.621 336.64)">
   <g transform="matrix(.3 0 0 -.3 -52.5 222.75)" fill-rule="evenodd" stroke="#000" stroke-miterlimit="10.433" stroke-width="0" xml:space="preserve"><path d="m459.91 409.14-0.02-0.07-0.01-0.08-0.02-0.07-0.01-0.08-0.08-0.32-0.03-0.16-0.12-0.48-0.01-0.08-0.04-0.14-0.01-0.07-0.02-0.07-0.01-0.07-0.03-0.18-0.02-0.1-0.02-0.08v-0.09c0-0.89 0.7-1.35 1.43-1.35 0.61 0 1.5 0.39 1.85 1.39 0.06 0.11 0.65 2.44 0.95 3.69l1.1 4.48c0.29 1.1 0.59 2.19 0.84 3.35 0.2 0.84 0.61 2.28 0.66 2.48 0.75 1.55 3.39 6.08 8.1 6.08 2.25 0 2.71-1.84 2.71-3.48 0-3.1-2.46-9.47-3.25-11.61-0.44-1.14-0.49-1.75-0.49-2.3 0-2.33 1.74-4.08 4.08-4.08 4.69 0 6.53 7.27 6.53 7.67 0 0.5-0.45 0.5-0.61 0.5-0.48 0-0.48-0.15-0.73-0.9-1-3.38-2.64-6.17-5.09-6.17-0.85 0-1.19 0.5-1.19 1.64 0 1.25 0.45 2.45 0.89 3.54 0.95 2.64 3.05 8.11 3.05 10.96 0 3.34-2.15 5.32-5.74 5.32-4.48 0-6.92-3.18-7.76-4.32-0.25 2.79-2.3 4.32-4.6 4.32-2.28 0-3.23-1.93-3.73-2.82-0.8-1.71-1.5-4.64-1.5-4.85 0-0.5 0.5-0.5 0.61-0.5 0.5 0 0.54 0.07 0.84 1.16 0.84 3.53 1.84 5.92 3.64 5.92 0.99 0 1.55-0.64 1.55-2.28 0-1.05-0.16-1.61-0.8-4.19z"/><path d="m497.07 420.92v0.31l-0.01 0.04v0.12l-0.01 0.03v0.03l-0.01 0.02v0.05l-0.01 0.03v0.02l-0.02 0.04-0.01 0.04-0.08 0.12-0.06 0.04-0.04 0.02-0.03 0.01-0.04 0.01-0.05 0.02h-0.05l-0.02 0.01h-0.03l-0.03 0.01h-0.12l-0.03 0.01h-0.4c-2.23-2.2-5.39-2.23-6.82-2.23v-1.25c0.84 0 3.14 0 5.04 0.97v-17.77c0-1.16 0-1.61-3.48-1.61h-1.31v-1.25c0.62 0.03 4.9 0.14 6.2 0.14 1.08 0 5.47-0.11 6.23-0.14v1.25h-1.33c-3.48 0-3.48 0.45-3.48 1.61z"/></g>
  </g>
  <g transform="translate(77.954 336.64)">
   <g transform="matrix(.3 0 0 -.3 -52.5 222.75)" fill-rule="evenodd" stroke="#000" stroke-miterlimit="10.433" stroke-width="0" xml:space="preserve"><path d="m459.91 409.14-0.02-0.07-0.01-0.08-0.02-0.07-0.01-0.08-0.08-0.32-0.03-0.16-0.12-0.48-0.01-0.08-0.04-0.14-0.01-0.07-0.02-0.07-0.01-0.07-0.03-0.18-0.02-0.1-0.02-0.08v-0.09c0-0.89 0.7-1.35 1.43-1.35 0.61 0 1.5 0.39 1.85 1.39 0.06 0.11 0.65 2.44 0.95 3.69l1.1 4.48c0.29 1.1 0.59 2.19 0.84 3.35 0.2 0.84 0.61 2.28 0.66 2.48 0.75 1.55 3.39 6.08 8.1 6.08 2.25 0 2.71-1.84 2.71-3.48 0-3.1-2.46-9.47-3.25-11.61-0.44-1.14-0.49-1.75-0.49-2.3 0-2.33 1.74-4.08 4.08-4.08 4.69 0 6.53 7.27 6.53 7.67 0 0.5-0.45 0.5-0.61 0.5-0.48 0-0.48-0.15-0.73-0.9-1-3.38-2.64-6.17-5.09-6.17-0.85 0-1.19 0.5-1.19 1.64 0 1.25 0.45 2.45 0.89 3.54 0.95 2.64 3.05 8.11 3.05 10.96 0 3.34-2.15 5.32-5.74 5.32-4.48 0-6.92-3.18-7.76-4.32-0.25 2.79-2.3 4.32-4.6 4.32-2.28 0-3.23-1.93-3.73-2.82-0.8-1.71-1.5-4.64-1.5-4.85 0-0.5 0.5-0.5 0.61-0.5 0.5 0 0.54 0.07 0.84 1.16 0.84 3.53 1.84 5.92 3.64 5.92 0.99 0 1.55-0.64 1.55-2.28 0-1.05-0.16-1.61-0.8-4.19z"/><path d="m502.99 405.11h-1.19c-0.09-0.77-0.45-2.83-0.9-3.18-0.27-0.2-2.95-0.2-3.44-0.2h-6.42c3.66 3.23 4.87 4.2 6.97 5.84 2.58 2.07 4.98 4.22 4.98 7.54 0 4.21-3.69 6.79-8.15 6.79-4.32 0-7.25-3.03-7.25-6.23 0-1.78 1.5-1.96 1.86-1.96 0.82 0 1.84 0.6 1.84 1.85 0 0.62-0.25 1.84-2.06 1.84 1.07 2.47 3.45 3.24 5.09 3.24 3.48 0 5.3-2.71 5.3-5.53 0-3.04-2.16-5.44-3.28-6.69l-8.39-8.3c-0.36-0.31-0.36-0.39-0.36-1.36h14.36z"/></g>
  </g>
 </g>
</svg>
