<?xml version="1.0" encoding="UTF-8"?>
<!-- Created with Inkscape (http://www.inkscape.org/) -->
<svg width="87.664mm" height="91.397mm" version="1.1" viewBox="0 0 87.664 91.397" xmlns="http://www.w3.org/2000/svg" xmlns:cc="http://creativecommons.org/ns#" xmlns:dc="http://purl.org/dc/elements/1.1/" xmlns:rdf="http://www.w3.org/1999/02/22-rdf-syntax-ns#">
 <defs>
  <marker id="marker11081" overflow="visible" orient="auto">
   <path transform="matrix(.4 0 0 .4 4 0)" d="m0 0 5-5-17.5 5 17.5 5z" fill="#e00" fill-rule="evenodd" stroke="#e00" stroke-width="1pt"/>
  </marker>
  <marker id="marker10843" overflow="visible" orient="auto">
   <path transform="matrix(.4 0 0 .4 4 0)" d="m0 0 5-5-17.5 5 17.5 5z" fill="#0f0" fill-rule="evenodd" stroke="#0f0" stroke-width="1pt"/>
  </marker>
  <marker id="marker9975" overflow="visible" orient="auto">
   <path transform="matrix(.4 0 0 .4 4 0)" d="m0 0 5-5-17.5 5 17.5 5z" fill="#e00" fill-rule="evenodd" stroke="#e00" stroke-width="1pt"/>
  </marker>
  <marker id="marker7661" overflow="visible" orient="auto">
   <path transform="matrix(.4 0 0 .4 4 0)" d="m0 0 5-5-17.5 5 17.5 5z" fill-rule="evenodd" stroke="#000" stroke-width="1pt"/>
  </marker>
  <marker id="marker7533" overflow="visible" orient="auto">
   <path transform="matrix(.4 0 0 .4 4 0)" d="m0 0 5-5-17.5 5 17.5 5z" fill-rule="evenodd" stroke="#000" stroke-width="1pt"/>
  </marker>
  <marker id="Arrow1Mend" overflow="visible" orient="auto">
   <path transform="matrix(-.4 0 0 -.4 -4 0)" d="m0 0 5-5-17.5 5 17.5 5z" fill-rule="evenodd" stroke="#000" stroke-width="1pt"/>
  </marker>
 </defs>
 <metadata>
  <rdf:RDF>
   <cc:Work rdf:about="">
    <dc:format>image/svg+xml</dc:format>
    <dc:type rdf:resource="http://purl.org/dc/dcmitype/StillImage"/>
    <dc:title/>
   </cc:Work>
  </rdf:RDF>
 </metadata>
 <g transform="translate(-280.1 -25.053)">
  <g fill="none">
   <g stroke="#000">
    <path d="m280.1 70.355h87.664" stroke-width=".21559px"/>
    <path d="m323.93 25.053v90.604" stroke-dasharray="0.21908108, 0.43816216" stroke-width=".21908"/>
    <path d="m323.93 70.38-18.656-22.612-18.656-22.612" marker-mid="url(#marker7533)" stroke-width=".265"/>
   </g>
   <path d="m317.62 62.731a9.8756 9.8819 0 0 1 6.2822-2.2573" marker-start="url(#marker9975)" stroke="#e00" stroke-linejoin="round" stroke-width=".24474"/>
   <path d="m339.89 116.41-7.9944-23.026-7.9945-23.026" marker-mid="url(#marker7661)" stroke="#000" stroke-width=".26458px"/>
   <g>
    <path d="m327.12 79.699a9.8756 9.8819 0 0 1-3.2165 0.53884" marker-start="url(#marker11081)" stroke="#e00" stroke-linejoin="round" stroke-width=".245"/>
    <path transform="scale(-1,1)" d="m-330.17 62.731a9.8756 9.8819 0 0 1 6.2823-2.2573" marker-start="url(#marker10843)" stroke="#0f0" stroke-linejoin="round" stroke-width=".24474"/>
    <path d="m323.87 70.38 18.656-22.612 18.656-22.612" marker-mid="url(#Arrow1Mend)" stroke="#000" stroke-width=".265"/>
   </g>
  </g>
  <g transform="matrix(.61728 0 0 .61728 124.72 25.629)">
   <g transform="matrix(.3 0 0 -.3 189.65 174.37)" fill-rule="evenodd" stroke="#000" stroke-miterlimit="10.433" stroke-width="0" xml:space="preserve"><path d="m478.19 431.11v0.31l-0.01 0.34-0.02 0.36-0.02 0.37-0.03 0.39-0.04 0.39-0.04 0.41-0.06 0.41-0.07 0.42-0.07 0.43-0.09 0.42-0.1 0.43-0.24 0.84-0.14 0.41-0.16 0.41-0.17 0.4-0.18 0.38-0.2 0.37-0.22 0.36-0.23 0.34-0.25 0.32-0.28 0.3-0.29 0.27-0.31 0.25-0.16 0.12-0.34 0.2-0.18 0.1-0.18 0.08-0.19 0.08-0.19 0.07-0.2 0.06-0.42 0.1-0.22 0.03-0.22 0.02-0.23 0.02h-0.23l-0.05-1.09c2.44 0 2.73-3.19 2.73-6.03 0-2.44-0.39-4.99-1.59-9.92h-10.41c0.85 3.2 1.85 7.18 3.83 10.72 1.36 2.43 3.19 5.23 5.44 5.23l0.05 1.09c-6.92 0-14.6-14.04-14.6-25.45 0-4.69 1.44-10.22 5.99-10.22v1.1c-1.66 0-2.71 1.45-2.71 6.07 0 2.1 0.3 4.99 1.6 9.86h10.37c-0.54-2.28-1.59-6.51-3.5-10.11-1.73-3.39-3.62-5.82-5.76-5.82v-1.1c7.01 0 14.59 14.3 14.59 25.46z"/><path d="m490.59 420.92v0.38l-0.01 0.03v0.09l-0.01 0.03v0.02l-0.01 0.03v0.02l-0.01 0.03v0.02l-0.01 0.04-0.02 0.04-0.01 0.03-0.02 0.03-0.03 0.03-0.02 0.03-0.09 0.06-0.08 0.02-0.04 0.02h-0.05l-0.03 0.01h-0.02l-0.03 0.01h-0.12l-0.04 0.01h-0.39c-2.24-2.2-5.39-2.23-6.83-2.23v-1.25c0.84 0 3.14 0 5.05 0.97v-17.77c0-1.16 0-1.61-3.49-1.61h-1.31v-1.25c0.62 0.03 4.91 0.14 6.2 0.14 1.08 0 5.47-0.11 6.24-0.14v1.25h-1.33c-3.49 0-3.49 0.45-3.49 1.61z"/></g>
  </g>
  <g transform="matrix(.61728 0 0 .61728 263.37 -4.2321)">
   <g transform="matrix(.3 0 0 -.3 -52.5 222.75)" fill-rule="evenodd" stroke="#000" stroke-miterlimit="10.433" stroke-width="0" xml:space="preserve"><path d="m478.19 431.11v0.31l-0.01 0.34-0.02 0.36-0.02 0.37-0.03 0.39-0.04 0.39-0.04 0.41-0.06 0.41-0.07 0.42-0.07 0.43-0.09 0.42-0.1 0.43-0.24 0.84-0.14 0.41-0.16 0.41-0.17 0.4-0.18 0.38-0.2 0.37-0.22 0.36-0.23 0.34-0.25 0.32-0.28 0.3-0.29 0.27-0.31 0.25-0.16 0.12-0.34 0.2-0.18 0.1-0.18 0.08-0.19 0.08-0.19 0.07-0.2 0.06-0.42 0.1-0.22 0.03-0.22 0.02-0.23 0.02h-0.23l-0.05-1.09c2.44 0 2.73-3.19 2.73-6.03 0-2.44-0.39-4.99-1.59-9.92h-10.41c0.85 3.2 1.85 7.18 3.83 10.72 1.36 2.43 3.19 5.23 5.44 5.23l0.05 1.09c-6.92 0-14.6-14.04-14.6-25.45 0-4.69 1.44-10.22 5.99-10.22v1.1c-1.66 0-2.71 1.45-2.71 6.07 0 2.1 0.3 4.99 1.6 9.86h10.37c-0.54-2.28-1.59-6.51-3.5-10.11-1.73-3.39-3.62-5.82-5.76-5.82v-1.1c7.01 0 14.59 14.3 14.59 25.46z"/><path d="m490.59 420.92v0.38l-0.01 0.03v0.09l-0.01 0.03v0.02l-0.01 0.03v0.02l-0.01 0.03v0.02l-0.01 0.04-0.02 0.04-0.01 0.03-0.02 0.03-0.03 0.03-0.02 0.03-0.09 0.06-0.08 0.02-0.04 0.02h-0.05l-0.03 0.01h-0.02l-0.03 0.01h-0.12l-0.04 0.01h-0.39c-2.24-2.2-5.39-2.23-6.83-2.23v-1.25c0.84 0 3.14 0 5.05 0.97v-17.77c0-1.16 0-1.61-3.49-1.61h-1.31v-1.25c0.62 0.03 4.91 0.14 6.2 0.14 1.08 0 5.47-0.11 6.24-0.14v1.25h-1.33c-3.49 0-3.49 0.45-3.49 1.61z"/></g>
  </g>
  <g transform="matrix(.59967 0 0 .59967 274.35 40.08)">
   <g transform="matrix(.3 0 0 -.3 -52.5 222.75)" fill-rule="evenodd" stroke="#000" stroke-miterlimit="10.433" stroke-width="0" xml:space="preserve"><path d="m478.19 431.11v0.31l-0.01 0.34-0.02 0.36-0.02 0.37-0.03 0.39-0.04 0.39-0.04 0.41-0.06 0.41-0.07 0.42-0.07 0.43-0.09 0.42-0.1 0.43-0.24 0.84-0.14 0.41-0.16 0.41-0.17 0.4-0.18 0.38-0.2 0.37-0.22 0.36-0.23 0.34-0.25 0.32-0.28 0.3-0.29 0.27-0.31 0.25-0.16 0.12-0.34 0.2-0.18 0.1-0.18 0.08-0.19 0.08-0.19 0.07-0.2 0.06-0.42 0.1-0.22 0.03-0.22 0.02-0.23 0.02h-0.23l-0.05-1.09c2.44 0 2.73-3.19 2.73-6.03 0-2.44-0.39-4.99-1.59-9.92h-10.41c0.85 3.2 1.85 7.18 3.83 10.72 1.36 2.43 3.19 5.23 5.44 5.23l0.05 1.09c-6.92 0-14.6-14.04-14.6-25.45 0-4.69 1.44-10.22 5.99-10.22v1.1c-1.66 0-2.71 1.45-2.71 6.07 0 2.1 0.3 4.99 1.6 9.86h10.37c-0.54-2.28-1.59-6.51-3.5-10.11-1.73-3.39-3.62-5.82-5.76-5.82v-1.1c7.01 0 14.59 14.3 14.59 25.46z"/><path d="m496.52 405.11h-1.19c-0.1-0.77-0.45-2.83-0.91-3.18-0.26-0.2-2.95-0.2-3.44-0.2h-6.42c3.66 3.23 4.88 4.2 6.97 5.84 2.58 2.07 4.99 4.22 4.99 7.54 0 4.21-3.69 6.79-8.16 6.79-4.31 0-7.25-3.03-7.25-6.23 0-1.78 1.5-1.96 1.86-1.96 0.83 0 1.84 0.6 1.84 1.85 0 0.62-0.25 1.84-2.06 1.84 1.08 2.47 3.45 3.24 5.09 3.24 3.49 0 5.3-2.71 5.3-5.53 0-3.04-2.16-5.44-3.28-6.69l-8.39-8.3c-0.36-0.31-0.36-0.39-0.36-1.36h14.36z"/></g>
  </g>
  <g transform="translate(22.754 -3.2104)">
   <g transform="matrix(.51944 0 0 .51944 215.71 13.475)">
    <g transform="matrix(.3 0 0 -.3 -52.5 222.75)" fill-rule="evenodd" stroke="#000" stroke-miterlimit="10.433" stroke-width="0" xml:space="preserve"><path d="m459.91 409.14-0.02-0.07-0.01-0.08-0.02-0.07-0.01-0.08-0.08-0.32-0.03-0.16-0.12-0.48-0.01-0.08-0.04-0.14-0.01-0.07-0.02-0.07-0.01-0.07-0.03-0.18-0.02-0.1-0.02-0.08v-0.09c0-0.89 0.7-1.35 1.43-1.35 0.61 0 1.5 0.39 1.85 1.39 0.06 0.11 0.65 2.44 0.95 3.69l1.1 4.48c0.29 1.1 0.59 2.19 0.84 3.35 0.2 0.84 0.61 2.28 0.66 2.48 0.75 1.55 3.39 6.08 8.1 6.08 2.25 0 2.71-1.84 2.71-3.48 0-3.1-2.46-9.47-3.25-11.61-0.44-1.14-0.49-1.75-0.49-2.3 0-2.33 1.74-4.08 4.08-4.08 4.69 0 6.53 7.27 6.53 7.67 0 0.5-0.45 0.5-0.61 0.5-0.48 0-0.48-0.15-0.73-0.9-1-3.38-2.64-6.17-5.09-6.17-0.85 0-1.19 0.5-1.19 1.64 0 1.25 0.45 2.45 0.89 3.54 0.95 2.64 3.05 8.11 3.05 10.96 0 3.34-2.15 5.32-5.74 5.32-4.48 0-6.92-3.18-7.76-4.32-0.25 2.79-2.3 4.32-4.6 4.32-2.28 0-3.23-1.93-3.73-2.82-0.8-1.71-1.5-4.64-1.5-4.85 0-0.5 0.5-0.5 0.61-0.5 0.5 0 0.54 0.07 0.84 1.16 0.84 3.53 1.84 5.92 3.64 5.92 0.99 0 1.55-0.64 1.55-2.28 0-1.05-0.16-1.61-0.8-4.19z"/><path d="m497.07 420.92v0.31l-0.01 0.04v0.12l-0.01 0.03v0.03l-0.01 0.02v0.05l-0.01 0.03v0.02l-0.02 0.04-0.01 0.04-0.08 0.12-0.06 0.04-0.04 0.02-0.03 0.01-0.04 0.01-0.05 0.02h-0.05l-0.02 0.01h-0.03l-0.03 0.01h-0.12l-0.03 0.01h-0.4c-2.23-2.2-5.39-2.23-6.82-2.23v-1.25c0.84 0 3.14 0 5.04 0.97v-17.77c0-1.16 0-1.61-3.48-1.61h-1.31v-1.25c0.62 0.03 4.9 0.14 6.2 0.14 1.08 0 5.47-0.11 6.23-0.14v1.25h-1.33c-3.48 0-3.48 0.45-3.48 1.61z"/></g>
   </g>
   <g transform="matrix(.50692 0 0 .50692 216.77 32.406)">
    <g transform="matrix(.3 0 0 -.3 -52.5 222.75)" fill-rule="evenodd" stroke="#000" stroke-miterlimit="10.433" stroke-width="0" xml:space="preserve"><path d="m459.91 409.14-0.02-0.07-0.01-0.08-0.02-0.07-0.01-0.08-0.08-0.32-0.03-0.16-0.12-0.48-0.01-0.08-0.04-0.14-0.01-0.07-0.02-0.07-0.01-0.07-0.03-0.18-0.02-0.1-0.02-0.08v-0.09c0-0.89 0.7-1.35 1.43-1.35 0.61 0 1.5 0.39 1.85 1.39 0.06 0.11 0.65 2.44 0.95 3.69l1.1 4.48c0.29 1.1 0.59 2.19 0.84 3.35 0.2 0.84 0.61 2.28 0.66 2.48 0.75 1.55 3.39 6.08 8.1 6.08 2.25 0 2.71-1.84 2.71-3.48 0-3.1-2.46-9.47-3.25-11.61-0.44-1.14-0.49-1.75-0.49-2.3 0-2.33 1.74-4.08 4.08-4.08 4.69 0 6.53 7.27 6.53 7.67 0 0.5-0.45 0.5-0.61 0.5-0.48 0-0.48-0.15-0.73-0.9-1-3.38-2.64-6.17-5.09-6.17-0.85 0-1.19 0.5-1.19 1.64 0 1.25 0.45 2.45 0.89 3.54 0.95 2.64 3.05 8.11 3.05 10.96 0 3.34-2.15 5.32-5.74 5.32-4.48 0-6.92-3.18-7.76-4.32-0.25 2.79-2.3 4.32-4.6 4.32-2.28 0-3.23-1.93-3.73-2.82-0.8-1.71-1.5-4.64-1.5-4.85 0-0.5 0.5-0.5 0.61-0.5 0.5 0 0.54 0.07 0.84 1.16 0.84 3.53 1.84 5.92 3.64 5.92 0.99 0 1.55-0.64 1.55-2.28 0-1.05-0.16-1.61-0.8-4.19z"/><path d="m502.99 405.11h-1.19c-0.09-0.77-0.45-2.83-0.9-3.18-0.27-0.2-2.95-0.2-3.44-0.2h-6.42c3.66 3.23 4.87 4.2 6.97 5.84 2.58 2.07 4.98 4.22 4.98 7.54 0 4.21-3.69 6.79-8.15 6.79-4.32 0-7.25-3.03-7.25-6.23 0-1.78 1.5-1.96 1.86-1.96 0.82 0 1.84 0.6 1.84 1.85 0 0.62-0.25 1.84-2.06 1.84 1.07 2.47 3.45 3.24 5.09 3.24 3.48 0 5.3-2.71 5.3-5.53 0-3.04-2.16-5.44-3.28-6.69l-8.39-8.3c-0.36-0.31-0.36-0.39-0.36-1.36h14.36z"/></g>
   </g>
  </g>
 </g>
</svg>
