<?xml version="1.0" encoding="UTF-8"?>
<!-- Created with Inkscape (http://www.inkscape.org/) -->
<svg width="148.01mm" height="65.705mm" version="1.1" viewBox="0 0 148.01 65.705" xmlns="http://www.w3.org/2000/svg" xmlns:cc="http://creativecommons.org/ns#" xmlns:dc="http://purl.org/dc/elements/1.1/" xmlns:rdf="http://www.w3.org/1999/02/22-rdf-syntax-ns#">
 <defs>
  <marker id="Arrow1Mstart" overflow="visible" orient="auto">
   <path transform="matrix(.4 0 0 .4 4 0)" d="m0 0 5-5-17.5 5 17.5 5z" fill-rule="evenodd" stroke="#000" stroke-width="1pt"/>
  </marker>
  <marker id="marker1077" overflow="visible" orient="auto">
   <path transform="matrix(-.8 0 0 -.8 -10 0)" d="m0 0 5-5-17.5 5 17.5 5z" fill-rule="evenodd" stroke="#000" stroke-width="1pt"/>
  </marker>
  <marker id="marker935" overflow="visible" orient="auto">
   <path transform="matrix(-.8 0 0 -.8 -10 0)" d="m0 0 5-5-17.5 5 17.5 5z" fill-rule="evenodd" stroke="#000" stroke-width="1pt"/>
  </marker>
  <marker id="marker2732" overflow="visible" orient="auto">
   <path transform="matrix(-.8 0 0 -.8 -10 0)" d="m0 0 5-5-17.5 5 17.5 5z" fill-rule="evenodd" stroke="#000" stroke-width="1pt"/>
  </marker>
  <marker id="marker2370" overflow="visible" orient="auto">
   <path transform="matrix(-.8 0 0 -.8 -10 0)" d="m0 0 5-5-17.5 5 17.5 5z" fill-rule="evenodd" stroke="#000" stroke-width="1pt"/>
  </marker>
  <marker id="Arrow1Mend" overflow="visible" orient="auto">
   <path transform="matrix(-.4 0 0 -.4 -4 0)" d="m0 0 5-5-17.5 5 17.5 5z" fill-rule="evenodd" stroke="#000" stroke-width="1pt"/>
  </marker>
 </defs>
 <metadata>
  <rdf:RDF>
   <cc:Work rdf:about="">
    <dc:format>image/svg+xml</dc:format>
    <dc:type rdf:resource="http://purl.org/dc/dcmitype/StillImage"/>
    <dc:title/>
   </cc:Work>
  </rdf:RDF>
 </metadata>
 <g transform="translate(-7.1815 -136.74)">
  <g>
   <g stroke="#000">
    <g fill="none">
     <g transform="matrix(.14292 0 0 -.14292 -19.983 233.31)" fill-rule="evenodd" stroke-miterlimit="10.433" xml:space="preserve"><path d="m479.74 425.18 0.01 0.04 0.01 0.03 0.01 0.06 0.02 0.05 0.01 0.06 0.01 0.05 0.02 0.04 0.01 0.05 0.02 0.08v0.04l0.02 0.08 0.01 0.03v0.03l0.01 0.03v0.03l0.01 0.03v0.03l0.01 0.05v0.16l0.01 0.05v0.12c0 0.91-0.69 1.35-1.44 1.35-0.5 0-1.3-0.3-1.75-1.05-0.1-0.25-0.5-1.78-0.69-2.69-0.36-1.29-0.7-2.64-1-3.98l-2.25-8.97c-0.19-0.75-2.33-4.23-5.62-4.23-2.54 0-3.1 2.18-3.1 4.03 0 2.29 0.86 5.39 2.55 9.76 0.8 2.05 1 2.6 1 3.6 0 2.23-1.59 4.07-4.09 4.07-4.74 0-6.58-7.21-6.58-7.67 0-0.5 0.5-0.5 0.61-0.5 0.5 0 0.54 0.11 0.79 0.91 1.35 4.69 3.33 6.17 5.03 6.17 0.4 0 1.25 0 1.25-1.59 0-1.25-0.5-2.53-0.85-3.49-1.99-5.28-2.9-8.12-2.9-10.47 0-4.42 3.15-5.92 6.08-5.92 1.96 0 3.64 0.85 5.03 2.24-0.64-2.58-1.23-5.03-3.23-7.68-1.3-1.68-3.19-3.14-5.48-3.14-0.69 0-2.94 0.16-3.79 2.1 0.8 0 1.46 0 2.14 0.61 0.5 0.43 1 1.09 1 2.03 0 1.55-1.34 1.75-1.84 1.75-1.14 0-2.8-0.8-2.8-3.24 0-2.5 2.21-4.34 5.29-4.34 5.14 0 10.26 4.55 11.67 10.17z" fill="#000" stroke-width="0"/></g>
     <g transform="matrix(.11268 0 0 -.11268 20.927 213.76)" fill-rule="evenodd" stroke-miterlimit="10.433" xml:space="preserve"><path d="m478.19 431.11v0.31l-0.01 0.34-0.02 0.36-0.02 0.37-0.03 0.39-0.04 0.39-0.04 0.41-0.06 0.41-0.07 0.42-0.07 0.43-0.09 0.42-0.1 0.43-0.24 0.84-0.14 0.41-0.16 0.41-0.17 0.4-0.18 0.38-0.2 0.37-0.22 0.36-0.23 0.34-0.25 0.32-0.28 0.3-0.29 0.27-0.31 0.25-0.16 0.12-0.34 0.2-0.18 0.1-0.18 0.08-0.19 0.08-0.19 0.07-0.2 0.06-0.42 0.1-0.22 0.03-0.22 0.02-0.23 0.02h-0.23l-0.05-1.09c2.44 0 2.73-3.19 2.73-6.03 0-2.44-0.39-4.99-1.59-9.92h-10.41c0.85 3.2 1.85 7.18 3.83 10.72 1.36 2.43 3.19 5.23 5.44 5.23l0.05 1.09c-6.92 0-14.6-14.04-14.6-25.45 0-4.69 1.44-10.22 5.99-10.22v1.1c-1.66 0-2.71 1.45-2.71 6.07 0 2.1 0.3 4.99 1.6 9.86h10.37c-0.54-2.28-1.59-6.51-3.5-10.11-1.73-3.39-3.62-5.82-5.76-5.82v-1.1c7.01 0 14.59 14.3 14.59 25.46z" fill="#000" stroke-width="0"/></g>
     <path d="m7.1815 185.12h138.91" marker-end="url(#marker935)" stroke-width=".5"/>
    </g>
    <path d="m50.247 169.15 29.695-8.125 75.217-20.694" fill="none" marker-mid="url(#marker2732)" stroke-width=".26458px"/>
    <g>
     <g transform="matrix(.3 0 0 -.3 -126.77 321.97)" fill-rule="evenodd" stroke-miterlimit="10.433" stroke-width="0" xml:space="preserve"><path d="m494.24 430.21-0.01 0.59-0.02 0.58-0.05 0.57-0.05 0.56-0.08 0.55-0.09 0.53-0.11 0.52-0.12 0.51-0.15 0.5-0.16 0.48-0.17 0.46-0.2 0.45-0.21 0.43-0.23 0.42-0.25 0.4-0.26 0.38-0.28 0.37-0.3 0.34-0.32 0.32-0.34 0.31-0.35 0.28-0.38 0.26-0.39 0.24-0.41 0.22-0.42 0.19-0.45 0.17-0.47 0.15-0.48 0.12-0.5 0.09-0.53 0.07-0.54 0.04-0.56 0.01c-5.18 0-9.56-4.18-9.92-4.48-3.98-3.94-5.47-8.42-5.47-8.52 0-0.29 0.25-0.36 0.5-0.36 0.94 0 1.74 0.5 2.49 1.05 0.89 0.66 0.95 0.8 1.5 1.95 0.43 0.99 1.59 3.44 3.43 5.54 1.19 1.34 2.19 2.09 4.19 2.09 4.83 0 7.91-4 7.91-10.52 0-10.17-7.22-20.23-16.44-20.23-7.08 0-10.95 5.64-10.95 12.75 0 6.78 3.48 14.25 10.76 18.55 0.49 0.29 1.99 1.18 1.99 1.84 0 0.34-0.39 0.34-0.5 0.34-1.74 0-16.49-7.92-16.49-22.87 0-6.97 3.64-13.34 11.91-13.34 9.72 0 23.97 9.76 23.97 25.1z"/><path d="m503.79 402.45-0.03-0.11-0.08-0.24-0.05-0.12-0.06-0.12-0.05-0.13-0.07-0.13-0.06-0.12-0.08-0.13-0.07-0.13-0.08-0.13-0.09-0.12-0.08-0.13-0.4-0.48-0.11-0.11-0.12-0.1-0.11-0.1-0.13-0.1-0.12-0.09-0.13-0.08-0.14-0.08-0.13-0.07-0.15-0.06-0.14-0.05-0.15-0.05-0.15-0.04-0.32-0.04h-0.16c-0.11 0-1.16 0-1.89 0.48 1.43 0.45 1.53 1.72 1.53 1.92 0 0.77-0.6 1.3-1.39 1.3-0.97 0-1.99-0.84-1.99-2.14 0-1.74 1.96-2.53 3.66-2.53 1.61 0 3.03 1 3.91 2.47 0.82-1.85 2.75-2.47 4.14-2.47 4.01 0 6.14 4.34 6.14 5.33 0 0.45-0.46 0.45-0.57 0.45-0.48 0-0.51-0.17-0.65-0.59-0.74-2.41-2.83-4.22-4.78-4.22-1.39 0-2.13 0.93-2.13 2.26 0 0.91 0.85 4.08 1.81 7.96 0.71 2.67 2.27 3.54 3.43 3.54 0.06 0 1.14 0 1.87-0.48-1.11-0.31-1.53-1.3-1.53-1.92 0-0.77 0.59-1.29 1.39-1.29 0.81 0 1.95 0.66 1.95 2.13 0 1.95-2.23 2.53-3.62 2.53-1.74 0-3.14-1.14-3.91-2.47-0.62 1.44-2.22 2.47-4.17 2.47-3.91 0-6.14-4.28-6.14-5.33 0-0.45 0.5-0.45 0.59-0.45 0.46 0 0.49 0.14 0.68 0.59 0.85 2.72 3.06 4.22 4.76 4.22 1.16 0 2.09-0.62 2.09-2.29 0-0.71-0.42-2.44-0.73-3.63z"/></g>
     <path d="m50.46 136.74v59.909" fill="none" stroke-dasharray="0.26458332, 0.79374995" stroke-width=".26458"/>
     <path d="m50.247 169.15h77.842" fill="none" stroke-dasharray="0.26458332, 0.79374995" stroke-width=".26458"/>
    </g>
    <path d="m50.43 185.12v-15.585" fill="none" marker-end="url(#marker2370)" stroke-width=".26458px"/>
   </g>
   <g fill="none">
    <path d="m69.476 164.04a19.725 19.731 0 0 1 0.67211 5.1068" stroke="#e00" stroke-linejoin="round" stroke-width=".53274"/>
    <path d="m92.793 136.74v59.909" stroke="#000" stroke-dasharray="0.26458332, 0.79374995" stroke-width=".26458"/>
    <path d="m92.746 169.2v-11.434" marker-end="url(#marker1077)" stroke="#000" stroke-width=".265"/>
   </g>
  </g>
  <g transform="matrix(.49001 0 0 .49001 53.374 115.16)">
   <g id="content" transform="matrix(.3 0 0 -.3 -52.5 222.75)" fill-rule="evenodd" stroke="#000" stroke-miterlimit="10.433" stroke-width="0" xml:space="preserve"><path d="m481.22 440.23v0.09l-0.01 0.02v0.02l-0.01 0.02v0.02l-0.01 0.02-0.01 0.03-0.01 0.02-0.01 0.03-0.02 0.02-0.01 0.03-0.04 0.04-0.02 0.03-0.02 0.01-0.02 0.02-0.02 0.01-0.01 0.01-0.02 0.01-0.01 0.01-0.02 0.01-0.01 0.01-0.02 0.01h-0.02l-0.04 0.02h-0.02l-0.02 0.01-0.03 0.01h-0.04l-0.03 0.01h-0.05l-0.03 0.01h-0.06c-0.75 0-5.48-0.46-6.33-0.55-0.4-0.05-0.7-0.3-0.7-0.95 0-0.6 0.45-0.6 1.2-0.6 2.39 0 2.49-0.34 2.49-0.84l-0.14-1-3-11.81c-0.89 1.84-2.35 3.18-4.58 3.18l0.05-1.09c3.23 0 3.93-4.08 3.93-4.37 0-0.32-0.09-0.61-0.14-0.86l-2.5-9.77c-0.25-0.89-0.25-0.98-1-1.84-2.18-2.74-4.23-3.53-5.62-3.53-2.49 0-3.19 2.73-3.19 4.68 0 2.49 1.59 8.61 2.74 10.91 1.54 2.94 3.79 4.78 5.78 4.78l-0.05 1.09c-5.83 0-12-7.31-12-14.59 0-4.69 2.73-7.97 6.62-7.97 0.99 0 3.49 0.21 6.47 3.74 0.41-2.1 2.14-3.74 4.53-3.74 1.75 0 2.9 1.14 3.69 2.74 0.85 1.79 1.5 4.84 1.5 4.93 0 0.5-0.45 0.5-0.59 0.5-0.5 0-0.55-0.2-0.7-0.9-0.85-3.24-1.75-6.17-3.79-6.17-1.34 0-1.5 1.29-1.5 2.29 0 1.19 0.1 1.55 0.3 2.39z"/><path d="m505.66 425.18v0.04l0.03 0.09 0.01 0.05 0.02 0.06 0.01 0.05 0.01 0.04 0.01 0.05 0.05 0.2v0.03l0.02 0.06v0.06l0.01 0.03v0.05l0.01 0.06v0.27c0 0.91-0.68 1.35-1.43 1.35-0.5 0-1.3-0.3-1.75-1.05-0.1-0.25-0.5-1.78-0.69-2.69-0.36-1.29-0.7-2.64-1-3.98l-2.25-8.97c-0.19-0.75-2.33-4.23-5.63-4.23-2.53 0-3.09 2.18-3.09 4.03 0 2.29 0.86 5.39 2.55 9.76 0.79 2.05 1 2.6 1 3.6 0 2.23-1.6 4.07-4.1 4.07-4.73 0-6.57-7.21-6.57-7.67 0-0.5 0.5-0.5 0.6-0.5 0.5 0 0.55 0.11 0.8 0.91 1.34 4.69 3.33 6.17 5.03 6.17 0.39 0 1.25 0 1.25-1.59 0-1.25-0.5-2.53-0.86-3.49-1.98-5.28-2.89-8.12-2.89-10.47 0-4.42 3.14-5.92 6.08-5.92 1.95 0 3.64 0.85 5.03 2.24-0.64-2.58-1.23-5.03-3.23-7.68-1.3-1.68-3.19-3.14-5.49-3.14-0.68 0-2.93 0.16-3.78 2.1 0.8 0 1.46 0 2.14 0.61 0.5 0.43 1 1.09 1 2.03 0 1.55-1.34 1.75-1.84 1.75-1.14 0-2.8-0.8-2.8-3.24 0-2.5 2.2-4.34 5.28-4.34 5.14 0 10.27 4.55 11.68 10.17z"/></g>
  </g>
  <g transform="matrix(.14896 0 0 -.14896 2.8319 237.18)" fill="none" fill-rule="evenodd" stroke="#000" stroke-miterlimit="10.433" xml:space="preserve"><path d="m468.38 440.23v0.05l-0.01 0.02v0.04l-0.01 0.02v0.02l-0.02 0.04v0.03l-0.02 0.02-0.01 0.03-0.01 0.02-0.02 0.03-0.04 0.04-0.02 0.03-0.01 0.01-0.02 0.01-0.02 0.02-0.02 0.01-0.01 0.01-0.06 0.03-0.01 0.01h-0.02l-0.04 0.02h-0.03l-0.04 0.02h-0.05l-0.02 0.01h-0.06l-0.03 0.01h-0.06c-1.14 0-4.78-0.41-6.08-0.5-0.39-0.05-0.93-0.1-0.93-1.05 0-0.55 0.48-0.55 1.23-0.55 2.39 0 2.45-0.45 2.45-0.84l-0.15-1-6.28-24.91c-0.14-0.54-0.25-0.9-0.25-1.7 0-2.83 2.2-4.58 4.53-4.58 1.65 0 2.89 1 3.75 2.78 0.89 1.91 1.48 4.8 1.48 4.89 0 0.5-0.43 0.5-0.59 0.5-0.5 0-0.55-0.2-0.7-0.9-0.85-3.24-1.79-6.17-3.79-6.17-1.5 0-1.5 1.59-1.5 2.29 0 1.19 0.07 1.44 0.3 2.39z" fill="#000" stroke-width="0"/></g>
  <path d="m50.247 169.15h42.169" fill="none" marker-end="url(#Arrow1Mend)" marker-start="url(#Arrow1Mstart)" stroke="#000" stroke-width=".26458px"/>
 </g>
</svg>
