<?xml version="1.0" encoding="UTF-8"?>
<!-- Created with Inkscape (http://www.inkscape.org/) -->
<svg width="150.5mm" height="62.241mm" version="1.1" viewBox="0 0 150.5 62.241" xmlns="http://www.w3.org/2000/svg" xmlns:cc="http://creativecommons.org/ns#" xmlns:dc="http://purl.org/dc/elements/1.1/" xmlns:rdf="http://www.w3.org/1999/02/22-rdf-syntax-ns#">
 <defs>
  <marker id="marker1335" overflow="visible" orient="auto">
   <path transform="matrix(-.8 0 0 -.8 -10 0)" d="m0 0 5-5-17.5 5 17.5 5z" fill-rule="evenodd" stroke="#000" stroke-width="1pt"/>
  </marker>
  <marker id="Arrow1Lend" overflow="visible" orient="auto">
   <path transform="matrix(-.8 0 0 -.8 -10 0)" d="m0 0 5-5-17.5 5 17.5 5z" fill-rule="evenodd" stroke="#000" stroke-width="1pt"/>
  </marker>
 </defs>
 <metadata>
  <rdf:RDF>
   <cc:Work rdf:about="">
    <dc:format>image/svg+xml</dc:format>
    <dc:type rdf:resource="http://purl.org/dc/dcmitype/StillImage"/>
    <dc:title/>
   </cc:Work>
  </rdf:RDF>
 </metadata>
 <g transform="translate(-4.6896 -2.618)">
  <g transform="translate(-26.458 -26.458)">
   <path d="m33.64 73.994h138.91" fill="none" marker-end="url(#Arrow1Lend)" stroke="#000" stroke-width=".5"/>
   <path d="m31.183 70.592 75.217-20.694 75.217-20.694" fill="none" marker-mid="url(#marker1335)" stroke="#000" stroke-width=".26458px"/>
   <g transform="translate(-47.814 -11.906)">
    <g transform="matrix(.3 0 0 -.3 -52.5 222.75)" fill-rule="evenodd" stroke="#000" stroke-miterlimit="10.433" stroke-width="0" xml:space="preserve"><path d="m494.24 430.21-0.01 0.59-0.02 0.58-0.05 0.57-0.05 0.56-0.08 0.55-0.09 0.53-0.11 0.52-0.12 0.51-0.15 0.5-0.16 0.48-0.17 0.46-0.2 0.45-0.21 0.43-0.23 0.42-0.25 0.4-0.26 0.38-0.28 0.37-0.3 0.34-0.32 0.32-0.34 0.31-0.35 0.28-0.38 0.26-0.39 0.24-0.41 0.22-0.42 0.19-0.45 0.17-0.47 0.15-0.48 0.12-0.5 0.09-0.53 0.07-0.54 0.04-0.56 0.01c-5.18 0-9.56-4.18-9.92-4.48-3.98-3.94-5.47-8.42-5.47-8.52 0-0.29 0.25-0.36 0.5-0.36 0.94 0 1.74 0.5 2.49 1.05 0.89 0.66 0.95 0.8 1.5 1.95 0.43 0.99 1.59 3.44 3.43 5.54 1.19 1.34 2.19 2.09 4.19 2.09 4.83 0 7.91-4 7.91-10.52 0-10.17-7.22-20.23-16.44-20.23-7.08 0-10.95 5.64-10.95 12.75 0 6.78 3.48 14.25 10.76 18.55 0.49 0.29 1.99 1.18 1.99 1.84 0 0.34-0.39 0.34-0.5 0.34-1.74 0-16.49-7.92-16.49-22.87 0-6.97 3.64-13.34 11.91-13.34 9.72 0 23.97 9.76 23.97 25.1z"/><path d="m503.79 402.45-0.03-0.11-0.08-0.24-0.05-0.12-0.06-0.12-0.05-0.13-0.07-0.13-0.06-0.12-0.08-0.13-0.07-0.13-0.08-0.13-0.09-0.12-0.08-0.13-0.4-0.48-0.11-0.11-0.12-0.1-0.11-0.1-0.13-0.1-0.12-0.09-0.13-0.08-0.14-0.08-0.13-0.07-0.15-0.06-0.14-0.05-0.15-0.05-0.15-0.04-0.32-0.04h-0.16c-0.11 0-1.16 0-1.89 0.48 1.43 0.45 1.53 1.72 1.53 1.92 0 0.77-0.6 1.3-1.39 1.3-0.97 0-1.99-0.84-1.99-2.14 0-1.74 1.96-2.53 3.66-2.53 1.61 0 3.03 1 3.91 2.47 0.82-1.85 2.75-2.47 4.14-2.47 4.01 0 6.14 4.34 6.14 5.33 0 0.45-0.46 0.45-0.57 0.45-0.48 0-0.51-0.17-0.65-0.59-0.74-2.41-2.83-4.22-4.78-4.22-1.39 0-2.13 0.93-2.13 2.26 0 0.91 0.85 4.08 1.81 7.96 0.71 2.67 2.27 3.54 3.43 3.54 0.06 0 1.14 0 1.87-0.48-1.11-0.31-1.53-1.3-1.53-1.92 0-0.77 0.59-1.29 1.39-1.29 0.81 0 1.95 0.66 1.95 2.13 0 1.95-2.23 2.53-3.62 2.53-1.74 0-3.14-1.14-3.91-2.47-0.62 1.44-2.22 2.47-4.17 2.47-3.91 0-6.14-4.28-6.14-5.33 0-0.45 0.5-0.45 0.59-0.45 0.46 0 0.49 0.14 0.68 0.59 0.85 2.72 3.06 4.22 4.76 4.22 1.16 0 2.09-0.62 2.09-2.29 0-0.71-0.42-2.44-0.73-3.63z"/></g>
   </g>
  </g>
 </g>
</svg>
