<?xml version="1.0" encoding="UTF-8"?>
<!-- Created with Inkscape (http://www.inkscape.org/) -->
<svg width="146.45mm" height="59.472mm" version="1.1" viewBox="0 0 146.45 59.472" xmlns="http://www.w3.org/2000/svg" xmlns:cc="http://creativecommons.org/ns#" xmlns:dc="http://purl.org/dc/elements/1.1/" xmlns:rdf="http://www.w3.org/1999/02/22-rdf-syntax-ns#">
 <defs>
  <marker id="Arrow2Lend" overflow="visible" orient="auto">
   <path transform="matrix(-1.1,0,0,-1.1,-1.1,0)" d="m8.7186 4.0337-10.926-4.0177 10.926-4.0177c-1.7455 2.3721-1.7354 5.6175-6e-7 8.0354z" fill-rule="evenodd" stroke="#000" stroke-linejoin="round" stroke-width=".625"/>
  </marker>
  <marker id="Arrow2Lstart" overflow="visible" orient="auto">
   <path transform="matrix(1.1,0,0,1.1,1.1,0)" d="m8.7186 4.0337-10.926-4.0177 10.926-4.0177c-1.7455 2.3721-1.7354 5.6175-6e-7 8.0354z" fill-rule="evenodd" stroke="#000" stroke-linejoin="round" stroke-width=".625"/>
  </marker>
  <marker id="Arrow1Lend" overflow="visible" orient="auto">
   <path transform="matrix(-.8 0 0 -.8 -10 0)" d="m0 0 5-5-17.5 5 17.5 5z" fill-rule="evenodd" stroke="#000" stroke-width="1pt"/>
  </marker>
 </defs>
 <metadata>
  <rdf:RDF>
   <cc:Work rdf:about="">
    <dc:format>image/svg+xml</dc:format>
    <dc:type rdf:resource="http://purl.org/dc/dcmitype/StillImage"/>
    <dc:title/>
   </cc:Work>
  </rdf:RDF>
 </metadata>
 <g transform="translate(-25.364 -124.96)">
  <path d="m31.939 154.69h138.91" fill="none" marker-end="url(#Arrow1Lend)" stroke="#000" stroke-width=".5"/>
  <g transform="matrix(.52535 0 0 .52535 -19.295 107.52)">
   <g transform="matrix(.3 0 0 -.3 -52.5 222.75)" fill-rule="evenodd" stroke="#000" stroke-miterlimit="10.433" stroke-width="0" xml:space="preserve"><path d="m494.24 430.21-0.01 0.59-0.02 0.58-0.05 0.57-0.05 0.56-0.08 0.55-0.09 0.53-0.11 0.52-0.12 0.51-0.15 0.5-0.16 0.48-0.17 0.46-0.2 0.45-0.21 0.43-0.23 0.42-0.25 0.4-0.26 0.38-0.28 0.37-0.3 0.34-0.32 0.32-0.34 0.31-0.35 0.28-0.38 0.26-0.39 0.24-0.41 0.22-0.42 0.19-0.45 0.17-0.47 0.15-0.48 0.12-0.5 0.09-0.53 0.07-0.54 0.04-0.56 0.01c-5.18 0-9.56-4.18-9.92-4.48-3.98-3.94-5.47-8.42-5.47-8.52 0-0.29 0.25-0.36 0.5-0.36 0.94 0 1.74 0.5 2.49 1.05 0.89 0.66 0.95 0.8 1.5 1.95 0.43 0.99 1.59 3.44 3.43 5.54 1.19 1.34 2.19 2.09 4.19 2.09 4.83 0 7.91-4 7.91-10.52 0-10.17-7.22-20.23-16.44-20.23-7.08 0-10.95 5.64-10.95 12.75 0 6.78 3.48 14.25 10.76 18.55 0.49 0.29 1.99 1.18 1.99 1.84 0 0.34-0.39 0.34-0.5 0.34-1.74 0-16.49-7.92-16.49-22.87 0-6.97 3.64-13.34 11.91-13.34 9.72 0 23.97 9.76 23.97 25.1z"/><path d="m503.79 402.45-0.03-0.11-0.08-0.24-0.05-0.12-0.06-0.12-0.05-0.13-0.07-0.13-0.06-0.12-0.08-0.13-0.07-0.13-0.08-0.13-0.09-0.12-0.08-0.13-0.4-0.48-0.11-0.11-0.12-0.1-0.11-0.1-0.13-0.1-0.12-0.09-0.13-0.08-0.14-0.08-0.13-0.07-0.15-0.06-0.14-0.05-0.15-0.05-0.15-0.04-0.32-0.04h-0.16c-0.11 0-1.16 0-1.89 0.48 1.43 0.45 1.53 1.72 1.53 1.92 0 0.77-0.6 1.3-1.39 1.3-0.97 0-1.99-0.84-1.99-2.14 0-1.74 1.96-2.53 3.66-2.53 1.61 0 3.03 1 3.91 2.47 0.82-1.85 2.75-2.47 4.14-2.47 4.01 0 6.14 4.34 6.14 5.33 0 0.45-0.46 0.45-0.57 0.45-0.48 0-0.51-0.17-0.65-0.59-0.74-2.41-2.83-4.22-4.78-4.22-1.39 0-2.13 0.93-2.13 2.26 0 0.91 0.85 4.08 1.81 7.96 0.71 2.67 2.27 3.54 3.43 3.54 0.06 0 1.14 0 1.87-0.48-1.11-0.31-1.53-1.3-1.53-1.92 0-0.77 0.59-1.29 1.39-1.29 0.81 0 1.95 0.66 1.95 2.13 0 1.95-2.23 2.53-3.62 2.53-1.74 0-3.14-1.14-3.91-2.47-0.62 1.44-2.22 2.47-4.17 2.47-3.91 0-6.14-4.28-6.14-5.33 0-0.45 0.5-0.45 0.59-0.45 0.46 0 0.49 0.14 0.68 0.59 0.85 2.72 3.06 4.22 4.76 4.22 1.16 0 2.09-0.62 2.09-2.29 0-0.71-0.42-2.44-0.73-3.63z"/></g>
  </g>
  <g transform="translate(-.74309)" fill="none" stroke="#000">
   <path d="m102.62 125.4v58.586" marker-end="url(#Arrow2Lend)" marker-start="url(#Arrow2Lstart)" stroke-width=".265"/>
   <path d="m70.871 151.2v6.9926" stroke-width=".26458px"/>
   <path d="m134.37 151.2v6.9926" stroke-width=".26458px"/>
  </g>
  <g transform="matrix(.68891 0 0 .68891 26.333 31.386)">
   <g id="content" transform="matrix(.3 0 0 -.3 -77.717 317.99)" fill="none" fill-rule="evenodd" stroke="#000" stroke-miterlimit="10.433" xml:space="preserve"><path d="m484.52 440.07h-27.36v-1.54h1.2c3.83 0 3.94-0.55 3.94-2.33v-26.11c0-1.8-0.11-2.34-3.94-2.34h-1.2v-1.55c1.75 0.16 5.64 0.16 7.58 0.16 2.05 0 6.58 0 8.37-0.16v1.55h-1.65c-4.74 0-4.74 0.64-4.74 2.39v12.25h4.3c4.78 0 5.28-1.6 5.28-5.83h1.24v13.2h-1.24c0-4.19-0.5-5.83-5.28-5.83h-4.3v12.61c0 1.64 0.11 1.99 2.46 1.99h5.96c7.49 0 8.72-2.78 9.52-9.66h1.25z" fill="#000" stroke-width="0"/></g>
  </g>
  <g transform="matrix(.67476 0 0 .67476 73.771 98.428)">
   <g transform="matrix(.3 0 0 -.3 -52.5 222.75)" fill-rule="evenodd" stroke="#000" stroke-miterlimit="10.433" stroke-width="0" xml:space="preserve"><path d="m484.52 440.07h-27.36v-1.54h1.2c3.83 0 3.94-0.55 3.94-2.33v-26.11c0-1.8-0.11-2.34-3.94-2.34h-1.2v-1.55c1.75 0.16 5.64 0.16 7.58 0.16 2.05 0 6.58 0 8.37-0.16v1.55h-1.65c-4.74 0-4.74 0.64-4.74 2.39v12.25h4.3c4.78 0 5.28-1.6 5.28-5.83h1.24v13.2h-1.24c0-4.19-0.5-5.83-5.28-5.83h-4.3v12.61c0 1.64 0.11 1.99 2.46 1.99h5.96c7.49 0 8.72-2.78 9.52-9.66h1.25z"/><path d="m498.3 435.54v0.28l-0.01 0.27-0.02 0.27-0.02 0.26-0.03 0.26-0.08 0.5-0.06 0.24-0.05 0.23-0.07 0.23-0.07 0.22-0.08 0.21-0.08 0.2-0.09 0.2-0.1 0.19-0.1 0.18-0.11 0.17-0.12 0.16-0.12 0.15-0.13 0.15-0.13 0.13-0.14 0.12-0.15 0.12-0.15 0.1-0.16 0.09-0.17 0.08-0.17 0.07-0.17 0.05-0.18 0.05-0.19 0.03-0.19 0.02-0.2 0.01c-1.73 0-2.64-1.35-2.64-2.64 0-1.3 0.84-2.64 2.64-2.64 1 0 1.7 0.5 2 0.79 0.05 0.1 0.09 0.14 0.14 0.14 0.11 0 0.11-0.68 0.11-0.89 0-1.59-0.36-5.18-3.5-8.26-0.59-0.6-0.59-0.71-0.59-0.85 0-0.36 0.25-0.56 0.5-0.56 0.54 0 4.68 3.8 4.68 9.67z"/></g>
  </g>
  <g transform="matrix(.64439 0 0 .64439 47.865 97.599)">
   <g transform="matrix(.3 0 0 -.3 -52.5 222.75)" fill="none" fill-rule="evenodd" stroke="#000" stroke-miterlimit="10.433" xml:space="preserve"><path d="m491.44 423.09-0.02 0.95-0.07 0.93-0.1 0.92-0.15 0.9-0.19 0.89-0.22 0.86-0.27 0.85-0.3 0.83-0.33 0.81-0.37 0.79-0.4 0.76-0.44 0.74-0.47 0.72-0.49 0.68-0.53 0.66-0.55 0.64-0.58 0.6-0.6 0.57-0.63 0.54-0.65 0.5-0.67 0.47-0.7 0.44-0.71 0.4-0.74 0.36-0.75 0.33-0.77 0.28-0.78 0.25-0.8 0.2-0.81 0.16-0.82 0.11-0.84 0.07-0.84 0.02v-1.25c4.34 0 11.47-3.53 11.47-16.28 0-13.2-6.83-17.39-11.43-17.39-4.78 0-11.45 4.38-11.45 17.39 0 12.89 7.28 16.28 11.41 16.28v1.25c-8.92 0-16.53-7.96-16.53-18.23 0-10.22 7.67-17.98 16.53-17.98 9.06 0 16.59 7.92 16.59 17.98z" fill="#000" stroke-width="0"/></g>
  </g>
 </g>
</svg>
