<?xml version="1.0" encoding="UTF-8" standalone="no"?>
<!-- Created with Inkscape (http://www.inkscape.org/) -->

<svg
   xmlns:dc="http://purl.org/dc/elements/1.1/"
   xmlns:cc="http://creativecommons.org/ns#"
   xmlns:rdf="http://www.w3.org/1999/02/22-rdf-syntax-ns#"
   xmlns:svg="http://www.w3.org/2000/svg"
   xmlns="http://www.w3.org/2000/svg"
   xmlns:sodipodi="http://sodipodi.sourceforge.net/DTD/sodipodi-0.dtd"
   xmlns:inkscape="http://www.inkscape.org/namespaces/inkscape"
   width="178.2mm"
   height="60.596mm"
   version="1.1"
   viewBox="0 0 178.2 60.596"
   id="svg5315"
   sodipodi:docname="lense_ray.svg"
   inkscape:version="0.92.3 (2405546, 2018-03-11)">
  <sodipodi:namedview
     pagecolor="#ffffff"
     bordercolor="#666666"
     borderopacity="1"
     objecttolerance="10"
     gridtolerance="10"
     guidetolerance="10"
     inkscape:pageopacity="0"
     inkscape:pageshadow="2"
     inkscape:window-width="2560"
     inkscape:window-height="1329"
     id="namedview5317"
     showgrid="false"
     inkscape:zoom="2.0609171"
     inkscape:cx="294.02218"
     inkscape:cy="102.19"
     inkscape:window-x="0"
     inkscape:window-y="55"
     inkscape:window-maximized="1"
     inkscape:current-layer="svg5315" />
  <defs
     id="defs5249">
    <marker
       id="marker4456"
       overflow="visible"
       orient="auto">
      <path
         transform="matrix(1.1,0,0,1.1,1.1,0)"
         d="m8.7186 4.0337-10.926-4.0177 10.926-4.0177c-1.7455 2.3721-1.7354 5.6175-6e-7 8.0354z"
         fill-rule="evenodd"
         stroke="#000"
         stroke-linejoin="round"
         stroke-width=".625"
         id="path5234" />
    </marker>
    <marker
       id="marker3916"
       overflow="visible"
       orient="auto">
      <path
         transform="matrix(1.1,0,0,1.1,1.1,0)"
         d="m8.7186 4.0337-10.926-4.0177 10.926-4.0177c-1.7455 2.3721-1.7354 5.6175-6e-7 8.0354z"
         fill-rule="evenodd"
         stroke="#000"
         stroke-linejoin="round"
         stroke-width=".625"
         id="path5237" />
    </marker>
    <marker
       id="marker3696"
       overflow="visible"
       orient="auto">
      <path
         transform="matrix(-.8 0 0 -.8 -10 0)"
         d="m0 0 5-5-17.5 5 17.5 5z"
         fill-rule="evenodd"
         stroke="#000"
         stroke-width="1pt"
         id="path5240" />
    </marker>
    <marker
       id="Arrow2Lend"
       overflow="visible"
       orient="auto">
      <path
         transform="matrix(-1.1,0,0,-1.1,-1.1,0)"
         d="m8.7186 4.0337-10.926-4.0177 10.926-4.0177c-1.7455 2.3721-1.7354 5.6175-6e-7 8.0354z"
         fill-rule="evenodd"
         stroke="#000"
         stroke-linejoin="round"
         stroke-width=".625"
         id="path5243" />
    </marker>
    <marker
       id="Arrow2Lstart"
       overflow="visible"
       orient="auto">
      <path
         transform="matrix(1.1,0,0,1.1,1.1,0)"
         d="m8.7186 4.0337-10.926-4.0177 10.926-4.0177c-1.7455 2.3721-1.7354 5.6175-6e-7 8.0354z"
         fill-rule="evenodd"
         stroke="#000"
         stroke-linejoin="round"
         stroke-width=".625"
         id="path5246" />
    </marker>
  </defs>
  <metadata
     id="metadata5251">
    <rdf:RDF>
      <cc:Work
         rdf:about="">
        <dc:format>image/svg+xml</dc:format>
        <dc:type
           rdf:resource="http://purl.org/dc/dcmitype/StillImage" />
        <dc:title />
      </cc:Work>
    </rdf:RDF>
  </metadata>
  <path
     style="fill:none;stroke:#000000;stroke-width:0.5;marker-end:url(#marker3696)"
     inkscape:connector-curvature="0"
     id="path5253"
     d="m 6.575,29.73 h 170.66" />
  <g
     id="g5261"
     transform="matrix(0.52535,0,0,0.52535,-44.659,-17.44)">
    <g
       style="fill-rule:evenodd;stroke:#000000;stroke-width:0;stroke-miterlimit:10.43299961"
       id="g5259"
       xml:space="preserve"
       stroke-miterlimit="10.433"
       transform="matrix(0.3,0,0,-0.3,-52.5,222.75)"><path
         inkscape:connector-curvature="0"
         id="path5255"
         d="m 494.24,430.21 -0.01,0.59 -0.02,0.58 -0.05,0.57 -0.05,0.56 -0.08,0.55 -0.09,0.53 -0.11,0.52 -0.12,0.51 -0.15,0.5 -0.16,0.48 -0.17,0.46 -0.2,0.45 -0.21,0.43 -0.23,0.42 -0.25,0.4 -0.26,0.38 -0.28,0.37 -0.3,0.34 -0.32,0.32 -0.34,0.31 -0.35,0.28 -0.38,0.26 -0.39,0.24 -0.41,0.22 -0.42,0.19 -0.45,0.17 -0.47,0.15 -0.48,0.12 -0.5,0.09 -0.53,0.07 -0.54,0.04 -0.56,0.01 c -5.18,0 -9.56,-4.18 -9.92,-4.48 -3.98,-3.94 -5.47,-8.42 -5.47,-8.52 0,-0.29 0.25,-0.36 0.5,-0.36 0.94,0 1.74,0.5 2.49,1.05 0.89,0.66 0.95,0.8 1.5,1.95 0.43,0.99 1.59,3.44 3.43,5.54 1.19,1.34 2.19,2.09 4.19,2.09 4.83,0 7.91,-4 7.91,-10.52 0,-10.17 -7.22,-20.23 -16.44,-20.23 -7.08,0 -10.95,5.64 -10.95,12.75 0,6.78 3.48,14.25 10.76,18.55 0.49,0.29 1.99,1.18 1.99,1.84 0,0.34 -0.39,0.34 -0.5,0.34 -1.74,0 -16.49,-7.92 -16.49,-22.87 0,-6.97 3.64,-13.34 11.91,-13.34 9.72,0 23.97,9.76 23.97,25.1 z" /><path
         inkscape:connector-curvature="0"
         id="path5257"
         d="m 503.79,402.45 -0.03,-0.11 -0.08,-0.24 -0.05,-0.12 -0.06,-0.12 -0.05,-0.13 -0.07,-0.13 -0.06,-0.12 -0.08,-0.13 -0.07,-0.13 -0.08,-0.13 -0.09,-0.12 -0.08,-0.13 -0.4,-0.48 -0.11,-0.11 -0.12,-0.1 -0.11,-0.1 -0.13,-0.1 -0.12,-0.09 -0.13,-0.08 -0.14,-0.08 -0.13,-0.07 -0.15,-0.06 -0.14,-0.05 -0.15,-0.05 -0.15,-0.04 -0.32,-0.04 h -0.16 c -0.11,0 -1.16,0 -1.89,0.48 1.43,0.45 1.53,1.72 1.53,1.92 0,0.77 -0.6,1.3 -1.39,1.3 -0.97,0 -1.99,-0.84 -1.99,-2.14 0,-1.74 1.96,-2.53 3.66,-2.53 1.61,0 3.03,1 3.91,2.47 0.82,-1.85 2.75,-2.47 4.14,-2.47 4.01,0 6.14,4.34 6.14,5.33 0,0.45 -0.46,0.45 -0.57,0.45 -0.48,0 -0.51,-0.17 -0.65,-0.59 -0.74,-2.41 -2.83,-4.22 -4.78,-4.22 -1.39,0 -2.13,0.93 -2.13,2.26 0,0.91 0.85,4.08 1.81,7.96 0.71,2.67 2.27,3.54 3.43,3.54 0.06,0 1.14,0 1.87,-0.48 -1.11,-0.31 -1.53,-1.3 -1.53,-1.92 0,-0.77 0.59,-1.29 1.39,-1.29 0.81,0 1.95,0.66 1.95,2.13 0,1.95 -2.23,2.53 -3.62,2.53 -1.74,0 -3.14,-1.14 -3.91,-2.47 -0.62,1.44 -2.22,2.47 -4.17,2.47 -3.91,0 -6.14,-4.28 -6.14,-5.33 0,-0.45 0.5,-0.45 0.59,-0.45 0.46,0 0.49,0.14 0.68,0.59 0.85,2.72 3.06,4.22 4.76,4.22 1.16,0 2.09,-0.62 2.09,-2.29 0,-0.71 -0.42,-2.44 -0.73,-3.63 z" /></g>  </g>
  <g
     style="fill:none;stroke:#000000"
     id="g5269"
     transform="translate(-26.10709,-124.96)">
    <path
       style="stroke-width:0.26499999;marker-start:url(#Arrow2Lstart);marker-end:url(#Arrow2Lend)"
       inkscape:connector-curvature="0"
       id="path5263"
       d="m 102.62,125.4 v 58.586" />
    <path
       style="stroke-width:0.26458001px"
       inkscape:connector-curvature="0"
       id="path5265"
       d="m 70.871,151.2 v 6.9926" />
    <path
       style="stroke-width:0.26458001px"
       inkscape:connector-curvature="0"
       id="path5267"
       d="m 134.37,151.2 v 6.9926" />
  </g>
  <g
     id="g5275"
     transform="matrix(0.68891,0,0,0.68891,0.969,-93.57)">
    <g
       style="fill:none;fill-rule:evenodd;stroke:#000000;stroke-miterlimit:10.43299961"
       id="g5273"
       xml:space="preserve"
       stroke-miterlimit="10.433"
       transform="matrix(0.3,0,0,-0.3,-77.717,317.99)"><path
         style="fill:#000000;stroke-width:0"
         inkscape:connector-curvature="0"
         id="path5271"
         d="m 484.52,440.07 h -27.36 v -1.54 h 1.2 c 3.83,0 3.94,-0.55 3.94,-2.33 v -26.11 c 0,-1.8 -0.11,-2.34 -3.94,-2.34 h -1.2 v -1.55 c 1.75,0.16 5.64,0.16 7.58,0.16 2.05,0 6.58,0 8.37,-0.16 v 1.55 h -1.65 c -4.74,0 -4.74,0.64 -4.74,2.39 v 12.25 h 4.3 c 4.78,0 5.28,-1.6 5.28,-5.83 h 1.24 v 13.2 h -1.24 c 0,-4.19 -0.5,-5.83 -5.28,-5.83 h -4.3 v 12.61 c 0,1.64 0.11,1.99 2.46,1.99 h 5.96 c 7.49,0 8.72,-2.78 9.52,-9.66 h 1.25 z" /></g>  </g>
  <g
     id="g5283"
     transform="matrix(0.67476,0,0,0.67476,48.407,-26.53)">
    <g
       style="fill-rule:evenodd;stroke:#000000;stroke-width:0;stroke-miterlimit:10.43299961"
       id="g5281"
       xml:space="preserve"
       stroke-miterlimit="10.433"
       transform="matrix(0.3,0,0,-0.3,-52.5,222.75)"><path
         inkscape:connector-curvature="0"
         id="path5277"
         d="m 484.52,440.07 h -27.36 v -1.54 h 1.2 c 3.83,0 3.94,-0.55 3.94,-2.33 v -26.11 c 0,-1.8 -0.11,-2.34 -3.94,-2.34 h -1.2 v -1.55 c 1.75,0.16 5.64,0.16 7.58,0.16 2.05,0 6.58,0 8.37,-0.16 v 1.55 h -1.65 c -4.74,0 -4.74,0.64 -4.74,2.39 v 12.25 h 4.3 c 4.78,0 5.28,-1.6 5.28,-5.83 h 1.24 v 13.2 h -1.24 c 0,-4.19 -0.5,-5.83 -5.28,-5.83 h -4.3 v 12.61 c 0,1.64 0.11,1.99 2.46,1.99 h 5.96 c 7.49,0 8.72,-2.78 9.52,-9.66 h 1.25 z" /><path
         inkscape:connector-curvature="0"
         id="path5279"
         d="m 498.3,435.54 v 0.28 l -0.01,0.27 -0.02,0.27 -0.02,0.26 -0.03,0.26 -0.08,0.5 -0.06,0.24 -0.05,0.23 -0.07,0.23 -0.07,0.22 -0.08,0.21 -0.08,0.2 -0.09,0.2 -0.1,0.19 -0.1,0.18 -0.11,0.17 -0.12,0.16 -0.12,0.15 -0.13,0.15 -0.13,0.13 -0.14,0.12 -0.15,0.12 -0.15,0.1 -0.16,0.09 -0.17,0.08 -0.17,0.07 -0.17,0.05 -0.18,0.05 -0.19,0.03 -0.19,0.02 -0.2,0.01 c -1.73,0 -2.64,-1.35 -2.64,-2.64 0,-1.3 0.84,-2.64 2.64,-2.64 1,0 1.7,0.5 2,0.79 0.05,0.1 0.09,0.14 0.14,0.14 0.11,0 0.11,-0.68 0.11,-0.89 0,-1.59 -0.36,-5.18 -3.5,-8.26 -0.59,-0.6 -0.59,-0.71 -0.59,-0.85 0,-0.36 0.25,-0.56 0.5,-0.56 0.54,0 4.68,3.8 4.68,9.67 z" /></g>  </g>
  <g
     id="g5289"
     transform="matrix(0.64439,0,0,0.64439,22.501,-27.36)">
    <g
       style="fill:none;fill-rule:evenodd;stroke:#000000;stroke-miterlimit:10.43299961"
       id="g5287"
       xml:space="preserve"
       stroke-miterlimit="10.433"
       transform="matrix(0.3,0,0,-0.3,-52.5,222.75)"><path
         style="fill:#000000;stroke-width:0"
         inkscape:connector-curvature="0"
         id="path5285"
         d="m 491.44,423.09 -0.02,0.95 -0.07,0.93 -0.1,0.92 -0.15,0.9 -0.19,0.89 -0.22,0.86 -0.27,0.85 -0.3,0.83 -0.33,0.81 -0.37,0.79 -0.4,0.76 -0.44,0.74 -0.47,0.72 -0.49,0.68 -0.53,0.66 -0.55,0.64 -0.58,0.6 -0.6,0.57 -0.63,0.54 -0.65,0.5 -0.67,0.47 -0.7,0.44 -0.71,0.4 -0.74,0.36 -0.75,0.33 -0.77,0.28 -0.78,0.25 -0.8,0.2 -0.81,0.16 -0.82,0.11 -0.84,0.07 -0.84,0.02 v -1.25 c 4.34,0 11.47,-3.53 11.47,-16.28 0,-13.2 -6.83,-17.39 -11.43,-17.39 -4.78,0 -11.45,4.38 -11.45,17.39 0,12.89 7.28,16.28 11.41,16.28 v 1.25 c -8.92,0 -16.53,-7.96 -16.53,-18.23 0,-10.22 7.67,-17.98 16.53,-17.98 9.06,0 16.59,7.92 16.59,17.98 z" /></g>  </g>
  <path
     style="fill:none;stroke:#000000;stroke-width:0.26499999;marker-start:url(#marker3916)"
     inkscape:connector-curvature="0"
     id="path5291"
     d="M 19.804,14.8 V 29.541" />
  <text
     id="text5295"
     xml:space="preserve"
     style="font-size:10.58300018px;line-height:1.25;font-family:sans-serif;letter-spacing:0px;word-spacing:0px;fill:#000000;stroke-width:0.26458001"
     word-spacing="0px"
     letter-spacing="0px"
     font-size="10.583px"
     y="16.69178"
     x="14.512487"><tspan
       style="font-size:4.23330021px;stroke-width:0.26458001"
       id="tspan5293"
       font-size="4.2333px"
       y="16.69178"
       x="14.512487">B</tspan></text>
  <g
     style="fill:none"
     id="g5307"
     transform="translate(-25.364,-220.21)">
    <g
       style="stroke-width:0.26458001px"
       id="g5303">
      <path
         style="stroke:#00c62e"
         inkscape:connector-curvature="0"
         id="path5297"
         d="m 45.168,235.01 h 56.885 l 96.347,45.671" />
      <path
         style="stroke:#ff250f"
         inkscape:connector-curvature="0"
         id="path5299"
         d="m 45.168,235.01 150.34,39.805" />
      <path
         style="stroke:#3c7df5"
         inkscape:connector-curvature="0"
         id="path5301"
         d="m 45.168,235.01 56.744,34.065 h 89.052" />
    </g>
    <path
       style="stroke:#000000;stroke-width:0.26499999;marker-start:url(#marker4456)"
       inkscape:connector-curvature="0"
       id="path5305"
       d="M 173.86,269.14 V 249.897" />
  </g>
  <text
     id="text5311"
     xml:space="preserve"
     style="font-size:10.58300018px;line-height:1.25;font-family:sans-serif;letter-spacing:0px;word-spacing:0px;fill:#000000;stroke-width:0.26458001"
     word-spacing="0px"
     letter-spacing="0px"
     font-size="10.583px"
     y="46.72216"
     x="151.30115"><tspan
       style="font-size:4.23330021px;stroke-width:0.26458001"
       id="tspan5309"
       font-size="4.2333px"
       y="46.72216"
       x="151.30115">B'</tspan></text>
  <text
     x="14.512487"
     y="27.275112"
     font-size="10.583px"
     letter-spacing="0px"
     word-spacing="0px"
     style="font-size:10.58300018px;line-height:1.25;font-family:sans-serif;letter-spacing:0px;word-spacing:0px;fill:#000000;stroke-width:0.26458001"
     xml:space="preserve"
     id="text5954"><tspan
       x="14.512487"
       y="27.275112"
       font-size="4.2333px"
       id="tspan5952"
       style="font-size:4.23330021px;stroke-width:0.26458001">A</tspan></text>
  <text
     x="151.30115"
     y="36.138824"
     font-size="10.583px"
     letter-spacing="0px"
     word-spacing="0px"
     style="font-size:10.58300018px;line-height:1.25;font-family:sans-serif;letter-spacing:0px;word-spacing:0px;fill:#000000;stroke-width:0.26458001"
     xml:space="preserve"
     id="text5958"><tspan
       x="151.30115"
       y="36.138824"
       font-size="4.2333px"
       id="tspan5956"
       style="font-size:4.23330021px;stroke-width:0.26458001">A'</tspan></text>
</svg>
